<svg width="63" height="60" viewBox="0 0 63 60" fill="none" xmlns="http://www.w3.org/2000/svg">
<path d="M31.4867 21.6543C34.0706 19.3724 38.0635 19.4482 40.5528 21.901C43.0409 24.3549 43.1267 28.2629 40.8124 30.812L31.4845 40L22.1589 30.812C19.8446 28.2629 19.9315 24.3484 22.4185 21.901C24.91 19.4514 28.8952 19.3692 31.4867 21.6543ZM38.9952 23.4298C37.3452 21.8047 34.6833 21.7387 32.9563 23.2643L31.4878 24.5604L30.0183 23.2653C28.2858 21.7376 25.6294 21.8047 23.975 23.432C22.336 25.0441 22.2535 27.6245 23.7638 29.3297L31.4856 36.937L39.2075 29.3308C40.7189 27.6245 40.6364 25.0473 38.9952 23.4298Z" fill="#838383"/>
<circle cx="44.7" cy="20.7" r="8.7" fill="#FFA542"/>
<path d="M41.2625 26V24.98L45.5375 20.855C45.9175 20.495 46.1975 20.18 46.3775 19.91C46.5675 19.63 46.6925 19.375 46.7525 19.145C46.8225 18.905 46.8575 18.675 46.8575 18.455C46.8575 17.915 46.6675 17.49 46.2875 17.18C45.9075 16.87 45.3525 16.715 44.6225 16.715C44.0625 16.715 43.5575 16.81 43.1075 17C42.6575 17.18 42.2675 17.465 41.9375 17.855L40.9175 16.97C41.3175 16.46 41.8525 16.07 42.5225 15.8C43.2025 15.52 43.9475 15.38 44.7575 15.38C45.4875 15.38 46.1225 15.5 46.6625 15.74C47.2025 15.97 47.6175 16.305 47.9075 16.745C48.2075 17.185 48.3575 17.705 48.3575 18.305C48.3575 18.645 48.3125 18.98 48.2225 19.31C48.1325 19.64 47.9625 19.99 47.7125 20.36C47.4625 20.73 47.1025 21.145 46.6325 21.605L42.8225 25.28L42.4625 24.695H48.8075V26H41.2625Z" fill="white"/>
</svg>
