<svg width="31" height="31" viewBox="0 0 31 31" fill="none" xmlns="http://www.w3.org/2000/svg">
<path d="M15.3498 10.535C14.1524 10.535 13.0039 11.0107 12.1572 11.8574C11.3105 12.7041 10.8348 13.8525 10.8348 15.05C10.8348 16.2475 11.3105 17.3959 12.1572 18.2426C13.0039 19.0893 14.1524 19.565 15.3498 19.565C16.5473 19.565 17.6957 19.0893 18.5424 18.2426C19.3891 17.3959 19.8648 16.2475 19.8648 15.05C19.8648 13.8525 19.3891 12.7041 18.5424 11.8574C17.6957 11.0107 16.5473 10.535 15.3498 10.535ZM15.3498 7.525C17.3456 7.525 19.2596 8.31781 20.6708 9.72902C22.082 11.1402 22.8748 13.0542 22.8748 15.05C22.8748 17.0458 22.082 18.9598 20.6708 20.371C19.2596 21.7822 17.3456 22.575 15.3498 22.575C13.3541 22.575 11.44 21.7822 10.0288 20.371C8.61761 18.9598 7.8248 17.0458 7.8248 15.05C7.8248 13.0542 8.61761 11.1402 10.0288 9.72902C11.44 8.31781 13.3541 7.525 15.3498 7.525ZM25.1323 7.14875C25.1323 7.64769 24.9341 8.12619 24.5813 8.47899C24.2285 8.8318 23.75 9.03 23.2511 9.03C22.7521 9.03 22.2736 8.8318 21.9208 8.47899C21.568 8.12619 21.3698 7.64769 21.3698 7.14875C21.3698 6.64981 21.568 6.17131 21.9208 5.81851C22.2736 5.4657 22.7521 5.2675 23.2511 5.2675C23.75 5.2675 24.2285 5.4657 24.5813 5.81851C24.9341 6.17131 25.1323 6.64981 25.1323 7.14875ZM15.3498 3.01C11.6264 3.01 11.0184 3.02054 9.28616 3.09729C8.10624 3.15298 7.31461 3.311 6.58017 3.59695C5.927 3.84979 5.45593 4.1523 4.95477 4.65496C4.48372 5.11008 4.12153 5.6657 3.89525 6.28036C3.6093 7.01781 3.45127 7.80794 3.39709 8.98635C3.31883 10.6479 3.3098 11.2288 3.3098 15.05C3.3098 18.7734 3.32034 19.3814 3.39709 21.1136C3.45278 22.2921 3.6108 23.0852 3.89525 23.8181C4.1511 24.4728 4.4521 24.9439 4.95176 25.4435C5.45894 25.9492 5.93001 26.2517 6.57716 26.5015C7.32063 26.789 8.11226 26.9485 9.28616 27.0027C10.9477 27.081 11.5286 27.09 15.3498 27.09C19.0732 27.09 19.6812 27.0795 21.4134 27.0027C22.5904 26.947 23.3835 26.789 24.1179 26.5046C24.7696 26.2502 25.2437 25.9477 25.7433 25.448C26.2505 24.9409 26.553 24.4698 26.8029 23.8226C27.0888 23.0807 27.2483 22.2875 27.3025 21.1136C27.3808 19.4521 27.3898 18.8712 27.3898 15.05C27.3898 11.3266 27.3793 10.7186 27.3025 8.98635C27.2468 7.80945 27.0888 7.0148 26.8029 6.28036C26.576 5.66633 26.2145 5.11092 25.7448 4.65496C25.2899 4.18367 24.7342 3.82145 24.1194 3.59544C23.382 3.30949 22.5904 3.15147 21.4134 3.09729C19.7519 3.01903 19.171 3.01 15.3498 3.01ZM15.3498 0C19.4389 0 19.9491 0.0150499 21.5534 0.0902999C23.1562 0.16555 24.2474 0.416885 25.2076 0.790125C26.2009 1.1724 27.0376 1.69011 27.8744 2.52539C28.6397 3.27773 29.2319 4.1878 29.6097 5.19225C29.9814 6.15093 30.2343 7.24356 30.3095 8.84639C30.3802 10.4507 30.3998 10.9609 30.3998 15.05C30.3998 19.1391 30.3848 19.6493 30.3095 21.2536C30.2343 22.8564 29.9814 23.9476 29.6097 24.9077C29.2329 25.9128 28.6406 26.823 27.8744 27.5746C27.1219 28.3396 26.2119 28.9317 25.2076 29.3099C24.2489 29.6816 23.1562 29.9345 21.5534 30.0097C19.9491 30.0804 19.4389 30.1 15.3498 30.1C11.2607 30.1 10.7505 30.085 9.14619 30.0097C7.54337 29.9345 6.45224 29.6816 5.49205 29.3099C4.48721 28.9328 3.57698 28.3406 2.82519 27.5746C2.05976 26.8224 1.46758 25.9123 1.08993 24.9077C0.71669 23.9491 0.465355 22.8564 0.390105 21.2536C0.31937 19.6493 0.299805 19.1391 0.299805 15.05C0.299805 10.9609 0.314855 10.4507 0.390105 8.84639C0.465355 7.24206 0.71669 6.15244 1.08993 5.19225C1.46654 4.18718 2.05885 3.27687 2.82519 2.52539C3.5772 1.75969 4.48736 1.16747 5.49205 0.790125C6.45224 0.416885 7.54186 0.16555 9.14619 0.0902999C10.7505 0.0195649 11.2607 0 15.3498 0Z" fill="#101010"/>
</svg>
