<svg width="44" height="44" viewBox="0 0 44 44" fill="none" xmlns="http://www.w3.org/2000/svg">
<path d="M13.7242 15.2614L10 11.5986L11.625 10L15.348 13.6639H32.8515C33.0305 13.6639 33.2071 13.705 33.367 13.7841C33.527 13.8631 33.6659 13.9778 33.7728 14.1191C33.8797 14.2603 33.9515 14.4242 33.9826 14.5976C34.0136 14.7711 34.0031 14.9492 33.9517 15.1179L31.1956 24.1562C31.1247 24.389 30.9793 24.5931 30.7812 24.7383C30.583 24.8834 30.3425 24.9617 30.0954 24.9617H16.0209V27.2213H28.6531V29.4809H14.8726C14.568 29.4809 14.2759 29.3618 14.0605 29.15C13.8452 28.9381 13.7242 28.6507 13.7242 28.3511V15.2614ZM16.0209 15.9235V22.7022H29.241L31.3081 15.9235H16.0209ZM15.4467 34C14.9899 34 14.5518 33.8215 14.2287 33.5036C13.9057 33.1858 13.7242 32.7548 13.7242 32.3053C13.7242 31.8559 13.9057 31.4248 14.2287 31.107C14.5518 30.7892 14.9899 30.6106 15.4467 30.6106C15.9036 30.6106 16.3417 30.7892 16.6648 31.107C16.9878 31.4248 17.1693 31.8559 17.1693 32.3053C17.1693 32.7548 16.9878 33.1858 16.6648 33.5036C16.3417 33.8215 15.9036 34 15.4467 34ZM29.2273 34C28.7704 34 28.3323 33.8215 28.0092 33.5036C27.6862 33.1858 27.5047 32.7548 27.5047 32.3053C27.5047 31.8559 27.6862 31.4248 28.0092 31.107C28.3323 30.7892 28.7704 30.6106 29.2273 30.6106C29.6841 30.6106 30.1223 30.7892 30.4453 31.107C30.7683 31.4248 30.9498 31.8559 30.9498 32.3053C30.9498 32.7548 30.7683 33.1858 30.4453 33.5036C30.1223 33.8215 29.6841 34 29.2273 34Z" fill="#838383"/>
<circle cx="34.5" cy="15.5" r="7.5" fill="#FFA542"/>
<path d="M35.445 10.9V20H34.158V12.031H32.104V10.9H35.445Z" fill="white"/>
</svg>
