<svg width="20" height="20" viewBox="0 0 20 20" fill="none" xmlns="http://www.w3.org/2000/svg">
<g clip-path="url(#clip0_422_338)">
<path d="M1.6665 9.99996C1.6665 14.6025 5.39734 18.3333 9.99984 18.3333C14.6023 18.3333 18.3332 14.6025 18.3332 9.99996C18.3332 5.39746 14.6023 1.66663 9.99984 1.66663C5.39734 1.66663 1.6665 5.39746 1.6665 9.99996Z" stroke="#838383" stroke-width="1.5" stroke-linecap="round" stroke-linejoin="round"/>
<path d="M10.833 1.70825C10.833 1.70825 13.333 4.99992 13.333 9.99992C13.333 14.9999 10.833 18.2916 10.833 18.2916" stroke="#838383" stroke-width="1.5" stroke-linecap="round" stroke-linejoin="round"/>
<path d="M9.1665 18.2916C9.1665 18.2916 6.6665 14.9999 6.6665 9.99992C6.6665 4.99992 9.1665 1.70825 9.1665 1.70825" stroke="#838383" stroke-width="1.5" stroke-linecap="round" stroke-linejoin="round"/>
<path d="M2.19141 12.9166H17.8081" stroke="#838383" stroke-width="1.5" stroke-linecap="round" stroke-linejoin="round"/>
<path d="M2.19141 7.08325H17.8081" stroke="#838383" stroke-width="1.5" stroke-linecap="round" stroke-linejoin="round"/>
</g>
<defs>
<clipPath id="clip0_422_338">
<rect width="20" height="20" fill="white"/>
</clipPath>
</defs>
</svg>
