<svg width="105" height="50" viewBox="0 0 105 50" fill="none" xmlns="http://www.w3.org/2000/svg">
<path d="M20.55 34.3C19.1833 34.3 17.9083 34.075 16.725 33.625C15.5583 33.175 14.5417 32.5417 13.675 31.725C12.825 30.9083 12.1583 29.95 11.675 28.85C11.2083 27.75 10.975 26.55 10.975 25.25C10.975 23.95 11.2083 22.75 11.675 21.65C12.1583 20.55 12.8333 19.5917 13.7 18.775C14.5667 17.9583 15.5833 17.325 16.75 16.875C17.9167 16.425 19.1833 16.2 20.55 16.2C21.9333 16.2 23.2 16.425 24.35 16.875C25.5167 17.325 26.525 17.9583 27.375 18.775C28.2417 19.575 28.9167 20.525 29.4 21.625C29.8833 22.725 30.125 23.9333 30.125 25.25C30.125 26.55 29.8833 27.7583 29.4 28.875C28.9167 29.975 28.2417 30.9333 27.375 31.75C26.525 32.55 25.5167 33.175 24.35 33.625C23.2 34.075 21.9333 34.3 20.55 34.3ZM26.275 38.025C25.5917 38.025 24.9417 37.95 24.325 37.8C23.725 37.65 23.125 37.4083 22.525 37.075C21.9417 36.7417 21.325 36.2917 20.675 35.725C20.0417 35.1583 19.35 34.4583 18.6 33.625L22.85 32.55C23.3 33.1667 23.7167 33.6583 24.1 34.025C24.4833 34.3917 24.85 34.65 25.2 34.8C25.5667 34.95 25.95 35.025 26.35 35.025C27.4167 35.025 28.3667 34.5917 29.2 33.725L31 35.875C29.8167 37.3083 28.2417 38.025 26.275 38.025ZM20.55 30.85C21.3333 30.85 22.05 30.7167 22.7 30.45C23.3667 30.1833 23.95 29.8 24.45 29.3C24.95 28.8 25.3333 28.2083 25.6 27.525C25.8833 26.825 26.025 26.0667 26.025 25.25C26.025 24.4167 25.8833 23.6583 25.6 22.975C25.3333 22.2917 24.95 21.7 24.45 21.2C23.95 20.7 23.3667 20.3167 22.7 20.05C22.05 19.7833 21.3333 19.65 20.55 19.65C19.7667 19.65 19.0417 19.7833 18.375 20.05C17.7083 20.3167 17.125 20.7 16.625 21.2C16.1417 21.7 15.7583 22.2917 15.475 22.975C15.2083 23.6583 15.075 24.4167 15.075 25.25C15.075 26.0667 15.2083 26.825 15.475 27.525C15.7583 28.2083 16.1417 28.8 16.625 29.3C17.125 29.8 17.7083 30.1833 18.375 30.45C19.0417 30.7167 19.7667 30.85 20.55 30.85ZM33.1688 34V16.5H40.7438C42.3104 16.5 43.6604 16.7583 44.7938 17.275C45.9271 17.775 46.8021 18.5 47.4188 19.45C48.0354 20.4 48.3438 21.5333 48.3438 22.85C48.3438 24.15 48.0354 25.275 47.4188 26.225C46.8021 27.175 45.9271 27.9083 44.7938 28.425C43.6604 28.925 42.3104 29.175 40.7438 29.175H35.4188L37.2188 27.35V34H33.1688ZM37.2188 27.8L35.4188 25.875H40.5188C41.7688 25.875 42.7021 25.6083 43.3188 25.075C43.9354 24.5417 44.2438 23.8 44.2438 22.85C44.2438 21.8833 43.9354 21.1333 43.3188 20.6C42.7021 20.0667 41.7688 19.8 40.5188 19.8H35.4188L37.2188 17.875V27.8ZM51.2352 34V16.5H55.2852V34H51.2352ZM67.8133 34.3C66.4633 34.3 65.2049 34.0833 64.0383 33.65C62.8883 33.2 61.8883 32.5667 61.0383 31.75C60.1883 30.9333 59.5216 29.975 59.0383 28.875C58.5716 27.775 58.3383 26.5667 58.3383 25.25C58.3383 23.9333 58.5716 22.725 59.0383 21.625C59.5216 20.525 60.1883 19.5667 61.0383 18.75C61.9049 17.9333 62.9133 17.3083 64.0633 16.875C65.2133 16.425 66.4716 16.2 67.8383 16.2C69.3549 16.2 70.7216 16.4667 71.9383 17C73.1716 17.5167 74.2049 18.2833 75.0383 19.3L72.4383 21.7C71.8383 21.0167 71.1716 20.5083 70.4383 20.175C69.7049 19.825 68.9049 19.65 68.0383 19.65C67.2216 19.65 66.4716 19.7833 65.7883 20.05C65.1049 20.3167 64.5133 20.7 64.0133 21.2C63.5133 21.7 63.1216 22.2917 62.8383 22.975C62.5716 23.6583 62.4383 24.4167 62.4383 25.25C62.4383 26.0833 62.5716 26.8417 62.8383 27.525C63.1216 28.2083 63.5133 28.8 64.0133 29.3C64.5133 29.8 65.1049 30.1833 65.7883 30.45C66.4716 30.7167 67.2216 30.85 68.0383 30.85C68.9049 30.85 69.7049 30.6833 70.4383 30.35C71.1716 30 71.8383 29.475 72.4383 28.775L75.0383 31.175C74.2049 32.1917 73.1716 32.9667 71.9383 33.5C70.7216 34.0333 69.3466 34.3 67.8133 34.3ZM81.3982 30L81.1732 25.325L89.5482 16.5H94.0482L86.4982 24.625L84.2482 27.025L81.3982 30ZM77.7732 34V16.5H81.7982V34H77.7732ZM89.7482 34L83.5232 26.375L86.1732 23.5L94.4732 34H89.7482Z" fill="#101010"/>
</svg>
